<svg width="31" height="31" viewBox="0 0 31 31" fill="none" xmlns="http://www.w3.org/2000/svg">
<g clip-path="url(#clip0_1673_5493)">
<mask id="mask0_1673_5493" style="mask-type:alpha" maskUnits="userSpaceOnUse" x="0" y="0" width="31" height="31">
<rect x="0.585938" y="0.23175" width="30" height="30"/>
</mask>
<g mask="url(#mask0_1673_5493)">
<path d="M17.3035 15.2318L9.86075 8.23623C9.51087 7.90739 9.33594 7.48885 9.33594 6.98063C9.33594 6.47241 9.51087 6.05387 9.86075 5.72502C10.2106 5.39617 10.6559 5.23175 11.1966 5.23175C11.7373 5.23175 12.1826 5.39617 12.5325 5.72502L21.3111 13.9761C21.502 14.1555 21.6371 14.3498 21.7167 14.5591C21.7962 14.7684 21.8359 14.9926 21.8359 15.2318C21.8359 15.4709 21.7962 15.6951 21.7167 15.9044C21.6371 16.1137 21.502 16.308 21.3111 16.4874L12.5325 24.7385C12.1826 25.0673 11.7373 25.2318 11.1966 25.2318C10.6559 25.2318 10.2106 25.0673 9.86075 24.7385C9.51087 24.4096 9.33594 23.9911 9.33594 23.4829C9.33594 22.9747 9.51087 22.5561 9.86075 22.2273L17.3035 15.2318Z" />
</g>
</g>
<defs>
<clipPath id="clip0_1673_5493">
<rect width="30" height="30" fill="white" transform="translate(0.585938 0.23175)"/>
</clipPath>
</defs>
</svg>
