<svg xmlns="http://www.w3.org/2000/svg" xmlns:xlink="http://www.w3.org/1999/xlink" viewBox="0 0 109 109.01"><defs><clipPath id="ebe429d3-fc7d-4115-92c6-f247ae2e4af3" transform="translate(-0.02 0.01)"><rect width="109" height="109" fill="none"/></clipPath></defs><g id="a1f59717-0a5d-47ea-b1c6-8ee572490d0c" data-name="Lag 2"><g id="ee95bf23-f828-4be8-bfa5-cf81bae66e49" data-name="Lag 1"><g clip-path="url(#ebe429d3-fc7d-4115-92c6-f247ae2e4af3)"><path d="M54.5,109a54.44,54.44,0,1,1,21.21-4.28A54.55,54.55,0,0,1,54.5,109Zm0-102.29a47.8,47.8,0,1,0,33.79,14A47.81,47.81,0,0,0,54.5,6.71Zm-1.22,83A35.22,35.22,0,1,1,63.72,20.87V32.09a24.74,24.74,0,1,0,0,44.81V88.13a35.2,35.2,0,0,1-10.44,1.59Zm4.34-20.9a2.11,2.11,0,0,1-.86-.18,2.23,2.23,0,0,1-.73-.49c-4.54-4.48-9-8.94-13.58-13.49a2.36,2.36,0,0,1,0-3.21c.66-.66,1.34-1.32,2-2l1.93-1.9a2.42,2.42,0,0,1,.74-.5,2.36,2.36,0,0,1,.87-.17,2.32,2.32,0,0,1,.87.17,2.2,2.2,0,0,1,.74.5l8,8C62,51.27,66.06,47.2,70,43.25s8-8,12.36-12.35a2.17,2.17,0,0,1,.74-.49,2.15,2.15,0,0,1,.87-.18,2.35,2.35,0,0,1,1.61.67c1.28,1.28,2.6,2.59,3.87,3.92a2.36,2.36,0,0,1,.5.74,2.32,2.32,0,0,1,.17.87,2.36,2.36,0,0,1-.17.87,2.43,2.43,0,0,1-.5.73h0c-9.54,9.51-19.4,19.34-30.26,30.11a2.25,2.25,0,0,1-1.58.67Z" transform="translate(-0.02 0.01)" fill="#005a78"/></g></g></g></svg>
